<svg xmlns="http://www.w3.org/2000/svg" viewBox="0 0 128 128" width="128" height="128">
  <defs>
    <linearGradient id="grad1" x1="0%" y1="0%" x2="100%" y2="100%">
      <stop offset="0%" style="stop-color:#38bdf8;stop-opacity:1" />
      <stop offset="50%" style="stop-color:#818cf8;stop-opacity:1" />
      <stop offset="100%" style="stop-color:#c084fc;stop-opacity:1" />
    </linearGradient>
    <filter id="shadow" x="-10%" y="-10%" width="120%" height="120%">
      <feDropShadow dx="0" dy="4" stdDeviation="4" flood-color="#000" flood-opacity="0.3"/>
    </filter>
  </defs>
  
  <!-- Background Rounded Rect -->
  <rect x="8" y="8" width="112" height="112" rx="28" fill="#1e1e2e" stroke="url(#grad1)" stroke-width="4" filter="url(#shadow)"/>
  
  <!-- Brain / AI Waves -->
  <path d="M42 40 C34 40 30 46 30 54 C30 62 36 68 40 70 C36 74 36 82 42 86 C48 90 56 88 60 84 C62 84 66 84 68 84 C72 88 80 90 86 86 C92 82 92 74 88 70 C92 68 98 62 98 54 C98 46 94 40 86 40 C82 34 74 32 64 34 C54 32 46 34 42 40 Z" fill="none" stroke="url(#grad1)" stroke-width="4" stroke-linecap="round" stroke-linejoin="round"/>
  
  <!-- Clock / History Sub-icon -->
  <circle cx="76" cy="76" r="22" fill="#181825" stroke="#38bdf8" stroke-width="3"/>
  <polyline points="76,64 76,76 84,80" fill="none" stroke="#38bdf8" stroke-width="3" stroke-linecap="round" stroke-linejoin="round"/>
  
  <!-- Sparkles -->
  <polygon points="40,24 43,30 49,33 43,36 40,42 37,36 31,33 37,30" fill="#38bdf8"/>
  <polygon points="96,26 98,30 102,32 98,34 96,38 94,34 90,32 94,30" fill="#c084fc"/>
</svg>
